# xmcd
#
# Track frame offsets: 
#        150
#        12546
#        28919
#        42124
#        53933
#        69246
#        87459
#        105469
#        122154
#        137872
#        155404
#        173157
#
# Disc length: 2472 seconds
#
# Revision: 0
# Processed by: cddbd v1.5.2PL0 Copyright (c) Steve Scherf et al.
# Submitted via: ExactAudioCopy v0.99pb4
#
DISCID=a109a60c
DTITLE=Slim Lightfoot - Stompin' The Blues
DYEAR=2006
DGENRE=Blues
TTITLE0=Shame, Shame, Shame
TTITLE1=Little Red Rooster
TTITLE2=Guitar Highway
TTITLE3=Blues In My Bottle
TTITLE4=Catfish Blues
TTITLE5=Frankie and Johnny
TTITLE6=Shake Your Hips
TTITLE7=Hi Heel Sneakers
TTITLE8=Dimples
TTITLE9=Love In Vain
TTITLE10=Dust My Broom
TTITLE11=Shake Your Moneymaker
EXTD=
EXTT0=
EXTT1=
EXTT2=
EXTT3=
EXTT4=
EXTT5=
EXTT6=
EXTT7=
EXTT8=
EXTT9=
EXTT10=
EXTT11=
PLAYORDER=
